<?xml version="1.0" encoding="UTF-8" standalone="no"?>
<svg width="400" height="400" viewBox="0 0 400 400" fill="none" xmlns="http://www.w3.org/2000/svg">
  <!-- Background circle -->
  <circle cx="200" cy="200" r="200" fill="#f5f0ea"/>
  
  <!-- Stylized silhouette for a blonde woman -->
  <path d="M200 320C255.228 320 300 275.228 300 220C300 164.772 255.228 120 200 120C144.772 120 100 164.772 100 220C100 275.228 144.772 320 200 320Z" fill="#f9e6d3"/>
  
  <!-- Hair shape - blonde -->
  <path d="M120 190C120 140 150 100 200 100C250 100 280 140 280 190C280 220 260 240 260 240C260 240 250 190 200 190C150 190 140 240 140 240C140 240 120 220 120 190Z" fill="#e6c88a"/>
  
  <!-- Side hair pieces -->
  <path d="M140 240C140 240 150 260 160 280C170 300 180 320 200 320C220 320 230 300 240 280C250 260 260 240 260 240" stroke="#e6c88a" stroke-width="20"/>
  
  <!-- Facial features - minimal and elegant -->
  <ellipse cx="170" cy="200" rx="5" ry="8" fill="#523b25"/>  <!-- Left eye -->
  <ellipse cx="230" cy="200" rx="5" ry="8" fill="#523b25"/>  <!-- Right eye -->
  <path d="M190 230C195 235 205 235 210 230" stroke="#dd9d8c" stroke-width="3" stroke-linecap="round"/> <!-- Lips -->
  
  <!-- Neck shadow -->
  <path d="M180 260C180 260 185 280 200 280C215 280 220 260 220 260" fill="#efd8c4"/>
</svg>